<mxfile host="app.diagrams.net" modified="2021-04-15T06:46:07.835Z" agent="5.0 (Windows NT 6.1; Win64; x64) AppleWebKit/537.36 (KHTML, like Gecko) Chrome/89.0.4389.114 Safari/537.36" etag="BFQEoNoaUn14Ht232cyS" version="14.5.8" type="github">
  <diagram id="E2W33tM_lJapqoK78Tub" name="Page-1">
    <mxGraphModel dx="625" dy="514" grid="1" gridSize="10" guides="1" tooltips="1" connect="1" arrows="1" fold="1" page="1" pageScale="1" pageWidth="1200" pageHeight="1920" math="0" shadow="0">
      <root>
        <mxCell id="0" />
        <mxCell id="1" parent="0" />
        <mxCell id="wwZ5Yi76qFVbDz2MihXI-183" style="edgeStyle=orthogonalEdgeStyle;rounded=0;orthogonalLoop=1;jettySize=auto;html=1;entryX=0;entryY=0;entryDx=0;entryDy=32;entryPerimeter=0;" edge="1" parent="1" source="wwZ5Yi76qFVbDz2MihXI-4" target="wwZ5Yi76qFVbDz2MihXI-178">
          <mxGeometry relative="1" as="geometry" />
        </mxCell>
        <mxCell id="wwZ5Yi76qFVbDz2MihXI-184" style="edgeStyle=orthogonalEdgeStyle;rounded=0;orthogonalLoop=1;jettySize=auto;html=1;entryX=0;entryY=0;entryDx=0;entryDy=32;entryPerimeter=0;" edge="1" parent="1" source="wwZ5Yi76qFVbDz2MihXI-4" target="wwZ5Yi76qFVbDz2MihXI-148">
          <mxGeometry relative="1" as="geometry" />
        </mxCell>
        <mxCell id="wwZ5Yi76qFVbDz2MihXI-4" value="src/main" style="shape=folder;fontStyle=1;tabWidth=80;tabHeight=30;tabPosition=left;html=1;boundedLbl=1;fillColor=#fff2cc;strokeColor=#d6b656;" vertex="1" parent="1">
          <mxGeometry x="40" y="730.5" width="130" height="80" as="geometry" />
        </mxCell>
        <mxCell id="wwZ5Yi76qFVbDz2MihXI-46" style="edgeStyle=orthogonalEdgeStyle;rounded=0;orthogonalLoop=1;jettySize=auto;html=1;entryX=0;entryY=0.5;entryDx=0;entryDy=0;" edge="1" parent="1" source="wwZ5Yi76qFVbDz2MihXI-6" target="wwZ5Yi76qFVbDz2MihXI-41">
          <mxGeometry relative="1" as="geometry" />
        </mxCell>
        <mxCell id="wwZ5Yi76qFVbDz2MihXI-47" style="edgeStyle=orthogonalEdgeStyle;rounded=0;orthogonalLoop=1;jettySize=auto;html=1;entryX=0;entryY=0.75;entryDx=0;entryDy=0;" edge="1" parent="1" source="wwZ5Yi76qFVbDz2MihXI-6" target="wwZ5Yi76qFVbDz2MihXI-42">
          <mxGeometry relative="1" as="geometry" />
        </mxCell>
        <mxCell id="wwZ5Yi76qFVbDz2MihXI-48" style="edgeStyle=orthogonalEdgeStyle;rounded=0;orthogonalLoop=1;jettySize=auto;html=1;entryX=0;entryY=0.75;entryDx=0;entryDy=0;" edge="1" parent="1" source="wwZ5Yi76qFVbDz2MihXI-6" target="wwZ5Yi76qFVbDz2MihXI-43">
          <mxGeometry relative="1" as="geometry" />
        </mxCell>
        <mxCell id="wwZ5Yi76qFVbDz2MihXI-49" style="edgeStyle=orthogonalEdgeStyle;rounded=0;orthogonalLoop=1;jettySize=auto;html=1;entryX=0;entryY=0.75;entryDx=0;entryDy=0;" edge="1" parent="1" source="wwZ5Yi76qFVbDz2MihXI-6" target="wwZ5Yi76qFVbDz2MihXI-44">
          <mxGeometry relative="1" as="geometry" />
        </mxCell>
        <mxCell id="wwZ5Yi76qFVbDz2MihXI-6" value="config" style="shape=folder;fontStyle=1;spacingTop=10;tabWidth=40;tabHeight=14;tabPosition=left;html=1;fillColor=#fff2cc;strokeColor=#d6b656;" vertex="1" parent="1">
          <mxGeometry x="510" y="350" width="70" height="50" as="geometry" />
        </mxCell>
        <mxCell id="wwZ5Yi76qFVbDz2MihXI-100" style="edgeStyle=orthogonalEdgeStyle;rounded=0;orthogonalLoop=1;jettySize=auto;html=1;entryX=0;entryY=0.5;entryDx=0;entryDy=0;" edge="1" parent="1" source="wwZ5Yi76qFVbDz2MihXI-7" target="wwZ5Yi76qFVbDz2MihXI-50">
          <mxGeometry relative="1" as="geometry" />
        </mxCell>
        <mxCell id="wwZ5Yi76qFVbDz2MihXI-7" value="controller" style="shape=folder;fontStyle=1;spacingTop=10;tabWidth=40;tabHeight=14;tabPosition=left;html=1;fillColor=#fff2cc;strokeColor=#d6b656;" vertex="1" parent="1">
          <mxGeometry x="510" y="424.5" width="70" height="50" as="geometry" />
        </mxCell>
        <mxCell id="wwZ5Yi76qFVbDz2MihXI-140" style="edgeStyle=orthogonalEdgeStyle;rounded=0;orthogonalLoop=1;jettySize=auto;html=1;entryX=0;entryY=0.5;entryDx=0;entryDy=0;" edge="1" parent="1" source="wwZ5Yi76qFVbDz2MihXI-8" target="wwZ5Yi76qFVbDz2MihXI-138">
          <mxGeometry relative="1" as="geometry" />
        </mxCell>
        <mxCell id="wwZ5Yi76qFVbDz2MihXI-8" value="jobs" style="shape=folder;fontStyle=1;spacingTop=10;tabWidth=40;tabHeight=14;tabPosition=left;html=1;fillColor=#fff2cc;strokeColor=#d6b656;" vertex="1" parent="1">
          <mxGeometry x="510" y="510" width="70" height="50" as="geometry" />
        </mxCell>
        <mxCell id="wwZ5Yi76qFVbDz2MihXI-176" style="edgeStyle=orthogonalEdgeStyle;rounded=0;orthogonalLoop=1;jettySize=auto;html=1;entryX=0;entryY=0.5;entryDx=0;entryDy=0;" edge="1" parent="1" source="wwZ5Yi76qFVbDz2MihXI-9" target="wwZ5Yi76qFVbDz2MihXI-54">
          <mxGeometry relative="1" as="geometry" />
        </mxCell>
        <mxCell id="wwZ5Yi76qFVbDz2MihXI-177" style="edgeStyle=orthogonalEdgeStyle;rounded=0;orthogonalLoop=1;jettySize=auto;html=1;entryX=0;entryY=0.675;entryDx=0;entryDy=0;entryPerimeter=0;" edge="1" parent="1" source="wwZ5Yi76qFVbDz2MihXI-9" target="wwZ5Yi76qFVbDz2MihXI-132">
          <mxGeometry relative="1" as="geometry" />
        </mxCell>
        <mxCell id="wwZ5Yi76qFVbDz2MihXI-9" value="base" style="shape=folder;fontStyle=1;spacingTop=10;tabWidth=40;tabHeight=14;tabPosition=left;html=1;fillColor=#fff2cc;strokeColor=#d6b656;" vertex="1" parent="1">
          <mxGeometry x="640" y="597.5" width="70" height="42.5" as="geometry" />
        </mxCell>
        <mxCell id="wwZ5Yi76qFVbDz2MihXI-143" style="edgeStyle=orthogonalEdgeStyle;rounded=0;orthogonalLoop=1;jettySize=auto;html=1;entryX=0;entryY=0.5;entryDx=0;entryDy=0;" edge="1" parent="1" source="wwZ5Yi76qFVbDz2MihXI-10" target="wwZ5Yi76qFVbDz2MihXI-141">
          <mxGeometry relative="1" as="geometry" />
        </mxCell>
        <mxCell id="wwZ5Yi76qFVbDz2MihXI-10" value="mapper" style="shape=folder;fontStyle=1;spacingTop=10;tabWidth=40;tabHeight=14;tabPosition=left;html=1;fillColor=#fff2cc;strokeColor=#d6b656;" vertex="1" parent="1">
          <mxGeometry x="780" y="680" width="70" height="50" as="geometry" />
        </mxCell>
        <mxCell id="wwZ5Yi76qFVbDz2MihXI-136" style="edgeStyle=orthogonalEdgeStyle;rounded=0;orthogonalLoop=1;jettySize=auto;html=1;entryX=0;entryY=0.5;entryDx=0;entryDy=0;" edge="1" parent="1" source="wwZ5Yi76qFVbDz2MihXI-11" target="wwZ5Yi76qFVbDz2MihXI-133">
          <mxGeometry relative="1" as="geometry" />
        </mxCell>
        <mxCell id="wwZ5Yi76qFVbDz2MihXI-11" value="model" style="shape=folder;fontStyle=1;spacingTop=10;tabWidth=40;tabHeight=14;tabPosition=left;html=1;fillColor=#fff2cc;strokeColor=#d6b656;" vertex="1" parent="1">
          <mxGeometry x="780" y="745" width="70" height="50" as="geometry" />
        </mxCell>
        <mxCell id="wwZ5Yi76qFVbDz2MihXI-67" style="edgeStyle=orthogonalEdgeStyle;rounded=0;orthogonalLoop=1;jettySize=auto;html=1;entryX=0;entryY=0.5;entryDx=0;entryDy=0;" edge="1" parent="1" source="wwZ5Yi76qFVbDz2MihXI-12" target="wwZ5Yi76qFVbDz2MihXI-63">
          <mxGeometry relative="1" as="geometry">
            <Array as="points">
              <mxPoint x="545" y="970" />
              <mxPoint x="792" y="970" />
              <mxPoint x="792" y="841" />
            </Array>
          </mxGeometry>
        </mxCell>
        <mxCell id="wwZ5Yi76qFVbDz2MihXI-68" style="edgeStyle=orthogonalEdgeStyle;rounded=0;orthogonalLoop=1;jettySize=auto;html=1;entryX=0;entryY=0.75;entryDx=0;entryDy=0;" edge="1" parent="1" source="wwZ5Yi76qFVbDz2MihXI-12" target="wwZ5Yi76qFVbDz2MihXI-64">
          <mxGeometry relative="1" as="geometry">
            <Array as="points">
              <mxPoint x="545" y="970" />
              <mxPoint x="792" y="970" />
              <mxPoint x="792" y="917" />
            </Array>
          </mxGeometry>
        </mxCell>
        <mxCell id="wwZ5Yi76qFVbDz2MihXI-69" style="edgeStyle=orthogonalEdgeStyle;rounded=0;orthogonalLoop=1;jettySize=auto;html=1;entryX=0;entryY=0.5;entryDx=0;entryDy=0;" edge="1" parent="1" source="wwZ5Yi76qFVbDz2MihXI-12" target="wwZ5Yi76qFVbDz2MihXI-65">
          <mxGeometry relative="1" as="geometry">
            <Array as="points">
              <mxPoint x="545" y="971" />
            </Array>
          </mxGeometry>
        </mxCell>
        <mxCell id="wwZ5Yi76qFVbDz2MihXI-70" style="edgeStyle=orthogonalEdgeStyle;rounded=0;orthogonalLoop=1;jettySize=auto;html=1;entryX=0;entryY=0.75;entryDx=0;entryDy=0;" edge="1" parent="1" source="wwZ5Yi76qFVbDz2MihXI-12" target="wwZ5Yi76qFVbDz2MihXI-66">
          <mxGeometry relative="1" as="geometry">
            <Array as="points">
              <mxPoint x="545" y="970" />
              <mxPoint x="792" y="970" />
              <mxPoint x="792" y="1043" />
            </Array>
          </mxGeometry>
        </mxCell>
        <mxCell id="wwZ5Yi76qFVbDz2MihXI-72" style="edgeStyle=orthogonalEdgeStyle;rounded=0;orthogonalLoop=1;jettySize=auto;html=1;entryX=0;entryY=0.75;entryDx=0;entryDy=0;" edge="1" parent="1" source="wwZ5Yi76qFVbDz2MihXI-12" target="wwZ5Yi76qFVbDz2MihXI-71">
          <mxGeometry relative="1" as="geometry">
            <Array as="points">
              <mxPoint x="545" y="970" />
              <mxPoint x="792" y="970" />
              <mxPoint x="792" y="1113" />
            </Array>
          </mxGeometry>
        </mxCell>
        <mxCell id="wwZ5Yi76qFVbDz2MihXI-12" value="utils" style="shape=folder;fontStyle=1;spacingTop=10;tabWidth=40;tabHeight=14;tabPosition=left;html=1;fillColor=#fff2cc;strokeColor=#d6b656;" vertex="1" parent="1">
          <mxGeometry x="510" y="870" width="70" height="50" as="geometry" />
        </mxCell>
        <mxCell id="wwZ5Yi76qFVbDz2MihXI-34" value="Application.java" style="swimlane;fontStyle=1;align=center;verticalAlign=middle;childLayout=stackLayout;horizontal=1;startSize=29;horizontalStack=0;resizeParent=1;resizeParentMax=0;resizeLast=0;collapsible=0;marginBottom=0;html=1;" vertex="1" parent="1">
          <mxGeometry x="510" y="250" width="140" height="49" as="geometry" />
        </mxCell>
        <mxCell id="wwZ5Yi76qFVbDz2MihXI-111" value="主要執行檔" style="text;html=1;align=center;verticalAlign=middle;resizable=0;points=[];autosize=1;strokeColor=none;" vertex="1" parent="wwZ5Yi76qFVbDz2MihXI-34">
          <mxGeometry y="29" width="140" height="20" as="geometry" />
        </mxCell>
        <mxCell id="wwZ5Yi76qFVbDz2MihXI-41" value="Caffeine.java" style="swimlane;fontStyle=1;align=center;verticalAlign=middle;childLayout=stackLayout;horizontal=1;startSize=29;horizontalStack=0;resizeParent=1;resizeParentMax=0;resizeLast=0;collapsible=0;marginBottom=0;html=1;" vertex="1" parent="1">
          <mxGeometry x="970" y="220" width="140" height="49" as="geometry" />
        </mxCell>
        <mxCell id="wwZ5Yi76qFVbDz2MihXI-123" value="Java緩存庫" style="text;html=1;align=center;verticalAlign=middle;resizable=0;points=[];autosize=1;strokeColor=none;" vertex="1" parent="wwZ5Yi76qFVbDz2MihXI-41">
          <mxGeometry y="29" width="140" height="20" as="geometry" />
        </mxCell>
        <mxCell id="wwZ5Yi76qFVbDz2MihXI-42" value="JobFactory.java" style="swimlane;fontStyle=1;align=center;verticalAlign=middle;childLayout=stackLayout;horizontal=1;startSize=29;horizontalStack=0;resizeParent=1;resizeParentMax=0;resizeLast=0;collapsible=0;marginBottom=0;html=1;" vertex="1" parent="1">
          <mxGeometry x="970" y="284" width="140" height="49" as="geometry" />
        </mxCell>
        <mxCell id="wwZ5Yi76qFVbDz2MihXI-126" value="Java工廠，建立Java" style="text;html=1;align=center;verticalAlign=middle;resizable=0;points=[];autosize=1;strokeColor=none;" vertex="1" parent="wwZ5Yi76qFVbDz2MihXI-42">
          <mxGeometry y="29" width="140" height="20" as="geometry" />
        </mxCell>
        <mxCell id="wwZ5Yi76qFVbDz2MihXI-43" value="MyBatisMapperScanner.java" style="swimlane;fontStyle=1;align=center;verticalAlign=middle;childLayout=stackLayout;horizontal=1;startSize=29;horizontalStack=0;resizeParent=1;resizeParentMax=0;resizeLast=0;collapsible=0;marginBottom=0;html=1;" vertex="1" parent="1">
          <mxGeometry x="970" y="350" width="180" height="49" as="geometry" />
        </mxCell>
        <mxCell id="wwZ5Yi76qFVbDz2MihXI-127" value="與SQL關聯的ORM" style="text;html=1;align=center;verticalAlign=middle;resizable=0;points=[];autosize=1;strokeColor=none;" vertex="1" parent="wwZ5Yi76qFVbDz2MihXI-43">
          <mxGeometry y="29" width="180" height="20" as="geometry" />
        </mxCell>
        <mxCell id="wwZ5Yi76qFVbDz2MihXI-44" value="Quartz.java" style="swimlane;fontStyle=1;align=center;verticalAlign=middle;childLayout=stackLayout;horizontal=1;startSize=29;horizontalStack=0;resizeParent=1;resizeParentMax=0;resizeLast=0;collapsible=0;marginBottom=0;html=1;" vertex="1" parent="1">
          <mxGeometry x="970" y="410" width="140" height="49" as="geometry" />
        </mxCell>
        <mxCell id="wwZ5Yi76qFVbDz2MihXI-128" value="Job的時間排程" style="text;html=1;align=center;verticalAlign=middle;resizable=0;points=[];autosize=1;strokeColor=none;" vertex="1" parent="wwZ5Yi76qFVbDz2MihXI-44">
          <mxGeometry y="29" width="140" height="20" as="geometry" />
        </mxCell>
        <mxCell id="wwZ5Yi76qFVbDz2MihXI-54" value="CommmonService.java" style="swimlane;fontStyle=1;align=center;verticalAlign=middle;childLayout=stackLayout;horizontal=1;startSize=29;horizontalStack=0;resizeParent=1;resizeParentMax=0;resizeLast=0;collapsible=0;marginBottom=0;html=1;" vertex="1" parent="1">
          <mxGeometry x="920" y="520" width="170" height="49" as="geometry" />
        </mxCell>
        <mxCell id="wwZ5Yi76qFVbDz2MihXI-146" value="企業信息、接口配置" style="text;html=1;align=center;verticalAlign=middle;resizable=0;points=[];autosize=1;strokeColor=none;" vertex="1" parent="wwZ5Yi76qFVbDz2MihXI-54">
          <mxGeometry y="29" width="170" height="20" as="geometry" />
        </mxCell>
        <mxCell id="wwZ5Yi76qFVbDz2MihXI-55" value="DataExchangeService.java" style="swimlane;fontStyle=1;align=center;verticalAlign=middle;childLayout=stackLayout;horizontal=1;startSize=29;horizontalStack=0;resizeParent=1;resizeParentMax=0;resizeLast=0;collapsible=0;marginBottom=0;html=1;" vertex="1" parent="1">
          <mxGeometry x="920" y="610" width="170" height="49" as="geometry" />
        </mxCell>
        <mxCell id="wwZ5Yi76qFVbDz2MihXI-132" value="資料處理" style="text;html=1;align=center;verticalAlign=middle;resizable=0;points=[];autosize=1;strokeColor=none;" vertex="1" parent="wwZ5Yi76qFVbDz2MihXI-55">
          <mxGeometry y="29" width="170" height="20" as="geometry" />
        </mxCell>
        <mxCell id="wwZ5Yi76qFVbDz2MihXI-63" value="File.java" style="swimlane;fontStyle=1;align=center;verticalAlign=middle;childLayout=stackLayout;horizontal=1;startSize=29;horizontalStack=0;resizeParent=1;resizeParentMax=0;resizeLast=0;collapsible=0;marginBottom=0;html=1;" vertex="1" parent="1">
          <mxGeometry x="932.5" y="820" width="145" height="49" as="geometry" />
        </mxCell>
        <mxCell id="wwZ5Yi76qFVbDz2MihXI-115" value="紀錄和回傳錯誤轉換txt檔" style="text;html=1;align=center;verticalAlign=middle;resizable=0;points=[];autosize=1;strokeColor=none;" vertex="1" parent="wwZ5Yi76qFVbDz2MihXI-63">
          <mxGeometry y="29" width="145" height="20" as="geometry" />
        </mxCell>
        <mxCell id="wwZ5Yi76qFVbDz2MihXI-64" value="OkHttpResult.java" style="swimlane;fontStyle=1;align=center;verticalAlign=middle;childLayout=stackLayout;horizontal=1;startSize=29;horizontalStack=0;resizeParent=1;resizeParentMax=0;resizeLast=0;collapsible=0;marginBottom=0;html=1;" vertex="1" parent="1">
          <mxGeometry x="932.5" y="884" width="140" height="49" as="geometry" />
        </mxCell>
        <mxCell id="wwZ5Yi76qFVbDz2MihXI-116" value="回傳結果" style="text;html=1;align=center;verticalAlign=middle;resizable=0;points=[];autosize=1;strokeColor=none;" vertex="1" parent="wwZ5Yi76qFVbDz2MihXI-64">
          <mxGeometry y="29" width="140" height="20" as="geometry" />
        </mxCell>
        <mxCell id="wwZ5Yi76qFVbDz2MihXI-65" value="OkHttpUtils.java" style="swimlane;fontStyle=1;align=center;verticalAlign=middle;childLayout=stackLayout;horizontal=1;startSize=29;horizontalStack=0;resizeParent=1;resizeParentMax=0;resizeLast=0;collapsible=0;marginBottom=0;html=1;" vertex="1" parent="1">
          <mxGeometry x="932.5" y="950" width="140" height="49" as="geometry" />
        </mxCell>
        <mxCell id="wwZ5Yi76qFVbDz2MihXI-120" value="呼叫伺服器" style="text;html=1;align=center;verticalAlign=middle;resizable=0;points=[];autosize=1;strokeColor=none;" vertex="1" parent="wwZ5Yi76qFVbDz2MihXI-65">
          <mxGeometry y="29" width="140" height="20" as="geometry" />
        </mxCell>
        <mxCell id="wwZ5Yi76qFVbDz2MihXI-66" value="PageUtil.java" style="swimlane;fontStyle=1;align=center;verticalAlign=middle;childLayout=stackLayout;horizontal=1;startSize=29;horizontalStack=0;resizeParent=1;resizeParentMax=0;resizeLast=0;collapsible=0;marginBottom=0;html=1;" vertex="1" parent="1">
          <mxGeometry x="932.5" y="1010" width="140" height="49" as="geometry" />
        </mxCell>
        <mxCell id="wwZ5Yi76qFVbDz2MihXI-119" value="分頁工具" style="text;html=1;align=center;verticalAlign=middle;resizable=0;points=[];autosize=1;strokeColor=none;" vertex="1" parent="wwZ5Yi76qFVbDz2MihXI-66">
          <mxGeometry y="29" width="140" height="20" as="geometry" />
        </mxCell>
        <mxCell id="wwZ5Yi76qFVbDz2MihXI-71" value="UserInfo.java" style="swimlane;fontStyle=1;align=center;verticalAlign=middle;childLayout=stackLayout;horizontal=1;startSize=29;horizontalStack=0;resizeParent=1;resizeParentMax=0;resizeLast=0;collapsible=0;marginBottom=0;html=1;" vertex="1" parent="1">
          <mxGeometry x="932.5" y="1080" width="140" height="49" as="geometry" />
        </mxCell>
        <mxCell id="wwZ5Yi76qFVbDz2MihXI-121" value="使用者資訊" style="text;html=1;align=center;verticalAlign=middle;resizable=0;points=[];autosize=1;strokeColor=none;" vertex="1" parent="wwZ5Yi76qFVbDz2MihXI-71">
          <mxGeometry y="29" width="140" height="20" as="geometry" />
        </mxCell>
        <mxCell id="wwZ5Yi76qFVbDz2MihXI-50" value="TestController.java" style="swimlane;fontStyle=1;align=center;verticalAlign=middle;childLayout=stackLayout;horizontal=1;startSize=29;horizontalStack=0;resizeParent=1;resizeParentMax=0;resizeLast=0;collapsible=0;marginBottom=0;html=1;" vertex="1" parent="1">
          <mxGeometry x="620" y="424.5" width="140" height="49" as="geometry" />
        </mxCell>
        <mxCell id="wwZ5Yi76qFVbDz2MihXI-113" value="測試專用" style="text;html=1;align=center;verticalAlign=middle;resizable=0;points=[];autosize=1;strokeColor=none;" vertex="1" parent="wwZ5Yi76qFVbDz2MihXI-50">
          <mxGeometry y="29" width="140" height="20" as="geometry" />
        </mxCell>
        <mxCell id="wwZ5Yi76qFVbDz2MihXI-133" value="Model.java" style="swimlane;fontStyle=1;align=center;verticalAlign=middle;childLayout=stackLayout;horizontal=1;startSize=29;horizontalStack=0;resizeParent=1;resizeParentMax=0;resizeLast=0;collapsible=0;marginBottom=0;html=1;" vertex="1" parent="1">
          <mxGeometry x="930" y="746" width="140" height="49" as="geometry" />
        </mxCell>
        <mxCell id="wwZ5Yi76qFVbDz2MihXI-134" value="資料處理" style="text;html=1;align=center;verticalAlign=middle;resizable=0;points=[];autosize=1;strokeColor=none;" vertex="1" parent="wwZ5Yi76qFVbDz2MihXI-133">
          <mxGeometry y="29" width="140" height="20" as="geometry" />
        </mxCell>
        <mxCell id="wwZ5Yi76qFVbDz2MihXI-138" value="Job.java" style="swimlane;fontStyle=1;align=center;verticalAlign=middle;childLayout=stackLayout;horizontal=1;startSize=29;horizontalStack=0;resizeParent=1;resizeParentMax=0;resizeLast=0;collapsible=0;marginBottom=0;html=1;" vertex="1" parent="1">
          <mxGeometry x="620" y="511" width="158" height="49" as="geometry" />
        </mxCell>
        <mxCell id="wwZ5Yi76qFVbDz2MihXI-139" value="呼叫Data，進入對應的工作" style="text;html=1;align=center;verticalAlign=middle;resizable=0;points=[];autosize=1;strokeColor=none;" vertex="1" parent="wwZ5Yi76qFVbDz2MihXI-138">
          <mxGeometry y="29" width="158" height="20" as="geometry" />
        </mxCell>
        <mxCell id="wwZ5Yi76qFVbDz2MihXI-141" value="Mapper.java和.xml檔" style="swimlane;fontStyle=1;align=center;verticalAlign=middle;childLayout=stackLayout;horizontal=1;startSize=29;horizontalStack=0;resizeParent=1;resizeParentMax=0;resizeLast=0;collapsible=0;marginBottom=0;html=1;" vertex="1" parent="1">
          <mxGeometry x="930" y="680" width="140" height="49" as="geometry" />
        </mxCell>
        <mxCell id="wwZ5Yi76qFVbDz2MihXI-142" value="映射說明文件(xml)" style="text;html=1;align=center;verticalAlign=middle;resizable=0;points=[];autosize=1;strokeColor=none;" vertex="1" parent="wwZ5Yi76qFVbDz2MihXI-141">
          <mxGeometry y="29" width="140" height="20" as="geometry" />
        </mxCell>
        <mxCell id="wwZ5Yi76qFVbDz2MihXI-154" style="edgeStyle=orthogonalEdgeStyle;rounded=0;orthogonalLoop=1;jettySize=auto;html=1;entryX=0;entryY=0.5;entryDx=0;entryDy=0;" edge="1" parent="1" source="wwZ5Yi76qFVbDz2MihXI-148" target="wwZ5Yi76qFVbDz2MihXI-150">
          <mxGeometry relative="1" as="geometry" />
        </mxCell>
        <mxCell id="wwZ5Yi76qFVbDz2MihXI-155" style="edgeStyle=orthogonalEdgeStyle;rounded=0;orthogonalLoop=1;jettySize=auto;html=1;entryX=0.007;entryY=0.6;entryDx=0;entryDy=0;entryPerimeter=0;" edge="1" parent="1" source="wwZ5Yi76qFVbDz2MihXI-148" target="wwZ5Yi76qFVbDz2MihXI-153">
          <mxGeometry relative="1" as="geometry" />
        </mxCell>
        <mxCell id="wwZ5Yi76qFVbDz2MihXI-148" value="resources" style="shape=folder;fontStyle=1;spacingTop=10;tabWidth=40;tabHeight=14;tabPosition=left;html=1;fillColor=#fff2cc;strokeColor=#d6b656;" vertex="1" parent="1">
          <mxGeometry x="170" y="1119" width="70" height="50" as="geometry" />
        </mxCell>
        <mxCell id="wwZ5Yi76qFVbDz2MihXI-150" value="Application.yml" style="swimlane;fontStyle=1;align=center;verticalAlign=middle;childLayout=stackLayout;horizontal=1;startSize=29;horizontalStack=0;resizeParent=1;resizeParentMax=0;resizeLast=0;collapsible=0;marginBottom=0;html=1;" vertex="1" parent="1">
          <mxGeometry x="490" y="1070" width="140" height="49" as="geometry" />
        </mxCell>
        <mxCell id="wwZ5Yi76qFVbDz2MihXI-151" value="API資源" style="text;html=1;align=center;verticalAlign=middle;resizable=0;points=[];autosize=1;strokeColor=none;" vertex="1" parent="wwZ5Yi76qFVbDz2MihXI-150">
          <mxGeometry y="29" width="140" height="20" as="geometry" />
        </mxCell>
        <mxCell id="wwZ5Yi76qFVbDz2MihXI-152" value="log4j2.xml" style="swimlane;fontStyle=1;align=center;verticalAlign=middle;childLayout=stackLayout;horizontal=1;startSize=29;horizontalStack=0;resizeParent=1;resizeParentMax=0;resizeLast=0;collapsible=0;marginBottom=0;html=1;" vertex="1" parent="1">
          <mxGeometry x="490" y="1150" width="140" height="49" as="geometry" />
        </mxCell>
        <mxCell id="wwZ5Yi76qFVbDz2MihXI-153" value="紀錄日誌和錯誤" style="text;html=1;align=center;verticalAlign=middle;resizable=0;points=[];autosize=1;strokeColor=none;" vertex="1" parent="wwZ5Yi76qFVbDz2MihXI-152">
          <mxGeometry y="29" width="140" height="20" as="geometry" />
        </mxCell>
        <mxCell id="wwZ5Yi76qFVbDz2MihXI-160" style="edgeStyle=orthogonalEdgeStyle;rounded=0;orthogonalLoop=1;jettySize=auto;html=1;entryX=0;entryY=0;entryDx=0;entryDy=32;entryPerimeter=0;" edge="1" parent="1" source="wwZ5Yi76qFVbDz2MihXI-5" target="wwZ5Yi76qFVbDz2MihXI-6">
          <mxGeometry relative="1" as="geometry" />
        </mxCell>
        <mxCell id="wwZ5Yi76qFVbDz2MihXI-161" style="edgeStyle=orthogonalEdgeStyle;rounded=0;orthogonalLoop=1;jettySize=auto;html=1;entryX=0;entryY=0;entryDx=0;entryDy=32;entryPerimeter=0;" edge="1" parent="1" source="wwZ5Yi76qFVbDz2MihXI-5" target="wwZ5Yi76qFVbDz2MihXI-7">
          <mxGeometry relative="1" as="geometry" />
        </mxCell>
        <mxCell id="wwZ5Yi76qFVbDz2MihXI-162" style="edgeStyle=orthogonalEdgeStyle;rounded=0;orthogonalLoop=1;jettySize=auto;html=1;entryX=0;entryY=0;entryDx=0;entryDy=32;entryPerimeter=0;" edge="1" parent="1" source="wwZ5Yi76qFVbDz2MihXI-5" target="wwZ5Yi76qFVbDz2MihXI-8">
          <mxGeometry relative="1" as="geometry" />
        </mxCell>
        <mxCell id="wwZ5Yi76qFVbDz2MihXI-165" style="edgeStyle=orthogonalEdgeStyle;rounded=0;orthogonalLoop=1;jettySize=auto;html=1;entryX=0;entryY=0;entryDx=0;entryDy=41;entryPerimeter=0;" edge="1" parent="1" source="wwZ5Yi76qFVbDz2MihXI-5" target="wwZ5Yi76qFVbDz2MihXI-163">
          <mxGeometry relative="1" as="geometry" />
        </mxCell>
        <mxCell id="wwZ5Yi76qFVbDz2MihXI-166" style="edgeStyle=orthogonalEdgeStyle;rounded=0;orthogonalLoop=1;jettySize=auto;html=1;entryX=0;entryY=0;entryDx=0;entryDy=41;entryPerimeter=0;" edge="1" parent="1" source="wwZ5Yi76qFVbDz2MihXI-5" target="wwZ5Yi76qFVbDz2MihXI-12">
          <mxGeometry relative="1" as="geometry" />
        </mxCell>
        <mxCell id="wwZ5Yi76qFVbDz2MihXI-175" style="edgeStyle=orthogonalEdgeStyle;rounded=0;orthogonalLoop=1;jettySize=auto;html=1;entryX=0;entryY=0.5;entryDx=0;entryDy=0;" edge="1" parent="1" source="wwZ5Yi76qFVbDz2MihXI-5" target="wwZ5Yi76qFVbDz2MihXI-34">
          <mxGeometry relative="1" as="geometry" />
        </mxCell>
        <mxCell id="wwZ5Yi76qFVbDz2MihXI-5" value="com.dcjet.cs" style="shape=folder;fontStyle=1;spacingTop=10;tabWidth=40;tabHeight=14;tabPosition=left;html=1;fillColor=#fff2cc;strokeColor=#d6b656;" vertex="1" parent="1">
          <mxGeometry x="330" y="560" width="90" height="50" as="geometry" />
        </mxCell>
        <mxCell id="wwZ5Yi76qFVbDz2MihXI-167" style="edgeStyle=orthogonalEdgeStyle;rounded=0;orthogonalLoop=1;jettySize=auto;html=1;" edge="1" parent="1" source="wwZ5Yi76qFVbDz2MihXI-163" target="wwZ5Yi76qFVbDz2MihXI-9">
          <mxGeometry relative="1" as="geometry" />
        </mxCell>
        <mxCell id="wwZ5Yi76qFVbDz2MihXI-169" style="edgeStyle=orthogonalEdgeStyle;rounded=0;orthogonalLoop=1;jettySize=auto;html=1;entryX=0;entryY=0;entryDx=0;entryDy=32;entryPerimeter=0;" edge="1" parent="1" source="wwZ5Yi76qFVbDz2MihXI-163" target="wwZ5Yi76qFVbDz2MihXI-168">
          <mxGeometry relative="1" as="geometry" />
        </mxCell>
        <mxCell id="wwZ5Yi76qFVbDz2MihXI-163" value="service" style="shape=folder;fontStyle=1;spacingTop=10;tabWidth=40;tabHeight=14;tabPosition=left;html=1;fillColor=#fff2cc;strokeColor=#d6b656;" vertex="1" parent="1">
          <mxGeometry x="510" y="640" width="70" height="50" as="geometry" />
        </mxCell>
        <mxCell id="wwZ5Yi76qFVbDz2MihXI-170" style="edgeStyle=orthogonalEdgeStyle;rounded=0;orthogonalLoop=1;jettySize=auto;html=1;entryX=0;entryY=0;entryDx=0;entryDy=32;entryPerimeter=0;" edge="1" parent="1" source="wwZ5Yi76qFVbDz2MihXI-168" target="wwZ5Yi76qFVbDz2MihXI-10">
          <mxGeometry relative="1" as="geometry" />
        </mxCell>
        <mxCell id="wwZ5Yi76qFVbDz2MihXI-171" style="edgeStyle=orthogonalEdgeStyle;rounded=0;orthogonalLoop=1;jettySize=auto;html=1;entryX=0;entryY=0;entryDx=0;entryDy=32;entryPerimeter=0;" edge="1" parent="1" source="wwZ5Yi76qFVbDz2MihXI-168" target="wwZ5Yi76qFVbDz2MihXI-11">
          <mxGeometry relative="1" as="geometry" />
        </mxCell>
        <mxCell id="wwZ5Yi76qFVbDz2MihXI-168" value="erp" style="shape=folder;fontStyle=1;spacingTop=10;tabWidth=40;tabHeight=14;tabPosition=left;html=1;fillColor=#fff2cc;strokeColor=#d6b656;" vertex="1" parent="1">
          <mxGeometry x="640" y="712.5" width="70" height="50" as="geometry" />
        </mxCell>
        <mxCell id="wwZ5Yi76qFVbDz2MihXI-182" style="edgeStyle=orthogonalEdgeStyle;rounded=0;orthogonalLoop=1;jettySize=auto;html=1;" edge="1" parent="1" source="wwZ5Yi76qFVbDz2MihXI-178" target="wwZ5Yi76qFVbDz2MihXI-5">
          <mxGeometry relative="1" as="geometry" />
        </mxCell>
        <mxCell id="wwZ5Yi76qFVbDz2MihXI-178" value="java" style="shape=folder;fontStyle=1;spacingTop=10;tabWidth=40;tabHeight=14;tabPosition=left;html=1;fillColor=#fff2cc;strokeColor=#d6b656;" vertex="1" parent="1">
          <mxGeometry x="170" y="560" width="90" height="50" as="geometry" />
        </mxCell>
      </root>
    </mxGraphModel>
  </diagram>
</mxfile>
